<?xml version="1.0" encoding="UTF-8" standalone="no"?>
<!DOCTYPE svg PUBLIC "-//W3C//DTD SVG 20010904//EN"
              "http://www.w3.org/TR/2001/REC-SVG-20010904/DTD/svg10.dtd">

<svg xmlns="http://www.w3.org/2000/svg"
     width="280px" height="240px"
     viewBox="0 0 451 380">
  <path id="Selection"
        fill="black" stroke="black" stroke-width="1"
        d="M 328.00,74.00
           C 328.00,74.00 350.00,57.40 350.00,57.40
             352.24,55.62 356.83,51.33 359.83,51.87
             363.00,52.45 371.28,64.92 373.65,68.00
             373.65,68.00 410.55,116.00 410.55,116.00
             410.55,116.00 420.64,129.00 420.64,129.00
             422.11,130.95 424.36,133.36 423.67,136.00
             422.95,138.76 413.51,147.49 411.00,150.00
             411.00,150.00 379.00,182.00 379.00,182.00
             375.76,185.24 364.51,194.38 366.01,199.00
             366.71,201.15 371.80,206.79 373.49,208.83
             373.49,208.83 386.11,225.00 386.11,225.00
             386.11,225.00 416.28,266.00 416.28,266.00
             421.32,272.35 437.23,291.86 440.00,298.00
             440.00,298.00 421.00,312.23 421.00,312.23
             416.07,316.01 413.19,319.47 407.00,321.00
             407.00,321.00 382.66,289.00 382.66,289.00
             382.66,289.00 350.12,246.00 350.12,246.00
             350.12,246.00 336.51,227.00 336.51,227.00
             334.84,224.48 332.13,221.22 333.23,218.00
             334.22,215.13 343.37,206.63 346.00,204.00
             346.00,204.00 376.00,174.00 376.00,174.00
             378.90,171.10 389.64,161.70 389.55,158.00
             389.50,155.85 386.90,152.71 385.63,151.00
             385.63,151.00 373.37,135.00 373.37,135.00
             373.37,135.00 346.74,100.00 346.74,100.00
             342.21,94.42 330.52,79.90 328.00,74.00 Z
           M 287.00,55.00
           C 292.32,57.52 295.88,61.88 300.00,66.00
             300.00,66.00 317.00,83.00 317.00,83.00
             319.24,85.24 323.64,89.32 324.98,92.00
             326.19,94.43 325.99,97.35 326.00,100.00
             326.00,100.00 326.00,259.00 326.00,259.00
             326.00,261.62 326.11,264.48 325.35,267.00
             323.95,271.68 311.34,291.93 308.00,297.00
             301.78,306.44 295.96,320.44 287.00,327.00
             287.00,327.00 287.00,55.00 287.00,55.00 Z
           M 36.00,64.00
           C 36.00,64.00 116.00,64.00 116.00,64.00
             110.56,71.53 102.11,76.91 95.00,82.76
             92.60,84.73 87.60,88.60 86.17,91.17
             84.78,93.70 85.00,97.18 85.00,100.00
             85.00,100.00 85.00,274.00 85.00,274.00
             85.00,276.09 84.88,279.06 85.60,281.00
             87.34,285.74 102.45,298.64 107.00,305.00
             107.00,305.00 17.00,305.00 17.00,305.00
             21.55,297.36 46.77,286.31 50.98,278.00
             52.19,275.60 51.99,272.63 52.00,270.00
             52.00,270.00 52.00,101.00 52.00,101.00
             52.00,98.33 52.10,95.60 51.37,93.00
             51.37,93.00 36.00,64.00 36.00,64.00 Z
           M 151.00,305.00
           C 144.99,300.70 136.55,291.55 131.00,286.00
             123.28,278.28 118.02,276.22 118.00,265.00
             118.00,265.00 118.00,188.00 118.00,188.00
             118.00,185.91 117.88,182.94 118.60,181.00
             120.07,177.00 130.48,167.52 134.00,164.00
             134.00,164.00 165.96,132.00 165.96,132.00
             165.96,132.00 178.00,119.00 178.00,119.00
             178.00,119.00 197.96,99.00 197.96,99.00
             197.96,99.00 209.00,87.00 209.00,87.00
             210.95,85.04 219.26,75.83 221.09,75.34
             225.36,74.19 232.38,84.09 235.09,87.00
             235.09,87.00 269.17,122.00 269.17,122.00
             271.85,124.96 279.33,130.68 277.83,135.00
             277.02,137.35 271.93,142.07 270.00,144.00
             265.90,148.10 251.18,161.71 249.60,166.00
             248.88,167.94 249.00,170.91 249.00,173.00
             249.00,173.00 249.00,309.00 249.00,309.00
             249.00,309.00 208.00,269.00 208.00,269.00
             204.91,265.91 194.71,257.08 194.61,253.00
             194.54,249.93 199.25,244.53 201.12,242.00
             201.12,242.00 208.57,231.00 208.57,231.00
             208.57,231.00 218.00,218.00 218.00,218.00
             218.00,218.00 190.00,220.71 190.00,220.71
             190.00,220.71 173.00,222.28 173.00,222.28
             173.00,222.28 151.00,225.00 151.00,225.00
             151.00,225.00 151.00,305.00 151.00,305.00 Z
           M 163.00,185.00
           C 163.00,185.00 205.00,185.00 205.00,185.00
             212.07,184.87 213.87,183.07 214.00,176.00
             214.00,176.00 214.00,147.00 214.00,147.00
             214.00,144.63 214.51,138.20 210.85,138.20
             207.85,138.20 200.33,146.67 198.00,149.00
             198.00,149.00 163.00,185.00 163.00,185.00 Z" />
</svg>
